{
	"asset":{
		"generator":"Khronos glTF Blender I/O v4.3.47",
		"version":"2.0"
	},
	"scene":0,
	"scenes":[
		{
			"name":"Scene",
			"nodes":[
				0
			]
		}
	],
	"nodes":[
		{
			"mesh":0,
			"name":"output",
			"rotation":[
				0.7071068286895752,
				0,
				0,
				0.7071068286895752
			],
			"translation":[
				0,
				27.366735458374023,
				-27.36673355102539
			]
		}
	],
	"materials":[
		{
			"doubleSided":true,
			"name":"Material.001",
			"pbrMetallicRoughness":{
				"baseColorTexture":{
					"index":0
				},
				"metallicFactor":0,
				"roughnessFactor":0.5
			}
		}
	],
	"meshes":[
		{
			"name":"output",
			"primitives":[
				{
					"attributes":{
						"POSITION":0,
						"NORMAL":1,
						"TEXCOORD_0":2
					},
					"indices":3,
					"material":0
				}
			]
		}
	],
	"textures":[
		{
			"sampler":0,
			"source":0
		}
	],
	"images":[
		{
			"mimeType":"image/jpeg",
			"name":"A_1-photoaidcom-invert",
			"uri":"A_1-photoaidcom-invert.jpg"
		}
	],
	"accessors":[
		{
			"bufferView":0,
			"componentType":5126,
			"count":22720,
			"max":[
				363.78399658203125,
				9,
				0
			],
			"min":[
				3.5840001106262207,
				0,
				-39.20000076293945
			],
			"type":"VEC3"
		},
		{
			"bufferView":1,
			"componentType":5126,
			"count":22720,
			"type":"VEC3"
		},
		{
			"bufferView":2,
			"componentType":5126,
			"count":22720,
			"type":"VEC2"
		},
		{
			"bufferView":3,
			"componentType":5123,
			"count":108288,
			"type":"SCALAR"
		}
	],
	"bufferViews":[
		{
			"buffer":0,
			"byteLength":272640,
			"byteOffset":0,
			"target":34962
		},
		{
			"buffer":0,
			"byteLength":272640,
			"byteOffset":272640,
			"target":34962
		},
		{
			"buffer":0,
			"byteLength":181760,
			"byteOffset":545280,
			"target":34962
		},
		{
			"buffer":0,
			"byteLength":216576,
			"byteOffset":727040,
			"target":34963
		}
	],
	"samplers":[
		{
			"magFilter":9729,
			"minFilter":9987
		}
	],
	"buffers":[
		{
			"byteLength":943616,
			"uri":"aartinkglb.bin"
		}
	]
}
